<svg width="14" height="14" viewBox="0 0 14 14" fill="none" xmlns="http://www.w3.org/2000/svg">
<path fill-rule="evenodd" clip-rule="evenodd" d="M1.66329 6.33008C1.66329 3.75275 3.75263 1.66341 6.32996 1.66341C8.90729 1.66341 10.9966 3.75275 10.9966 6.33008C10.9966 7.58735 10.4994 8.7285 9.69093 9.56763C9.66808 9.58518 9.64612 9.60443 9.62519 9.62535C9.60427 9.64627 9.58503 9.66823 9.56748 9.69107C8.72835 10.4996 7.58722 10.9967 6.32996 10.9967C3.75263 10.9967 1.66329 8.90741 1.66329 6.33008ZM10.0751 11.018C9.04862 11.8391 7.74662 12.3301 6.32996 12.3301C3.01625 12.3301 0.329956 9.64379 0.329956 6.33008C0.329956 3.01637 3.01625 0.330078 6.32996 0.330078C9.64367 0.330078 12.33 3.01637 12.33 6.33008C12.33 7.74676 11.839 9.04877 11.0179 10.0752L13.468 12.5253C13.7284 12.7857 13.7284 13.2078 13.468 13.4682C13.2077 13.7285 12.7855 13.7285 12.5252 13.4682L10.0751 11.018Z" fill="#FCFCFC"/>
</svg>
